<svg id="bf8d2931-d52a-4493-a073-5cc7f2942ce8" viewBox="0 0 64 64" xmlns="http://www.w3.org/2000/svg" xmlns:xlink="http://www.w3.org/1999/xlink" data-name="glyph copy" width="300" height="300" version="1.1" xmlns:svgjs="http://svgjs.dev/svgjs"><g width="100%" height="100%" transform="matrix(-1,0,0,1,63.97355318069458,0)"><linearGradient id="b9c82ab7-bea7-4a37-a1f9-0bdf60a29cfb" gradientUnits="userSpaceOnUse" x1="4" x2="60" y1="32" y2="32"><stop stop-opacity="1" stop-color="#ffde00" offset="0"/><stop stop-opacity="1" stop-color="#fd5900" offset="1"/></linearGradient><path d="m6.08725 28.21781a10.19509 10.19509 0 0 1 14.28968-14.28959 12.40392 12.40392 0 0 1 -3.71939 10.57023 13.09554 13.09554 0 0 1 -7.03014 3.69071 10.03211 10.03211 0 0 1 -3.54015.02865zm12.48368 3.0528a10.2598 10.2598 0 0 0 3.95565-15.12088 14.998 14.998 0 0 1 -4.43577 9.782 14.99921 14.99921 0 0 1 -9.782 4.436 10.17861 10.17861 0 0 0 10.26212.90288zm16.91948 18.1235c-.05235-.02274-17.82943-15.56489-17.87976-15.601a12.22823 12.22823 0 0 0 8.3416-8.34157l15.56508 17.8297c.64259.98643-.566 3.60645-1.61949 4.45751-.84762 1.04225-3.44105 2.22425-4.40743 1.65536zm-6.49248-11.122a1.01347 1.01347 0 0 0 1.43326-1.43326l-2.63-2.63a1.01358 1.01358 0 0 0 -1.43329 1.43323zm27.75507-7.73247c-3.81471-.80925-8.44878 2.82758-7.94741 6.88693.31529 3.00976 3.00265 5.20978 3.12446 5.303a2.85058 2.85058 0 0 1 .31532 4.77273c-3.58315 3.13884-6.60013 2.845-8.20537 2.3147a5.6478 5.6478 0 0 0 -.9316-3.18184 8.91535 8.91535 0 0 1 -1.7773 2.53684 8.68774 8.68774 0 0 1 -2.5512 1.77727c1.00988.56724 2.8486 1.46853 4.07044.57333 1.97078.78111 6.08423 1.58373 10.73511-2.49389a5.17842 5.17842 0 0 0 1.78438-3.146 5.02567 5.02567 0 0 0 -2.17131-4.73691c-.16485-.13616-4.12783-3.42547-1.44043-6.72916 1.55125-1.976 4.672-2.71843 6.48549-.96746a1.014 1.014 0 0 0 1.469-1.39744 5.21107 5.21107 0 0 0 -2.95958-1.5121z" fill="url(#b9c82ab7-bea7-4a37-a1f9-0bdf60a29cfb)" data-original-color="b9c82ab7-bea7-4a37-a1f9-0bdf60a29cfb" stroke="none" stroke-opacity="1"/></g></svg>