<?xml version="1.0" encoding="utf-8"?>
<!-- Generator: Adobe Illustrator 27.5.0, SVG Export Plug-In . SVG Version: 6.00 Build 0)  -->
<svg version="1.1" id="Layer_1" xmlns="http://www.w3.org/2000/svg" xmlns:xlink="http://www.w3.org/1999/xlink" x="0px" y="0px"
	 viewBox="0 0 5000 5000.003" style="enable-background:new 0 0 5000 5000.003;" xml:space="preserve">
<g>
	<path style="fill-rule:evenodd;clip-rule:evenodd;fill:#252626;" d="M1079.699,1357.03l2747.712-446.96
		c44.426-6.731,86.161,22.888,94.237,67.314l47.12,290.791c6.731,44.426-22.885,86.161-67.314,92.893l-2747.712,446.957
		c-44.426,8.078-86.158-22.885-94.237-67.314l-47.12-290.791C1005.654,1406.838,1035.273,1363.762,1079.699,1357.03
		L1079.699,1357.03z"/>
	<path style="fill-rule:evenodd;clip-rule:evenodd;fill:#AEAFB0;" d="M1334.142,1315.295l289.444-47.12l-161.551,490.039
		l-289.447,47.12L1334.142,1315.295z M1860.529,1230.481l289.444-47.12l-161.551,488.692l-289.447,47.12L1860.529,1230.481z
		 M2386.916,1144.319l290.791-47.12l-162.897,490.039l-289.447,47.12L2386.916,1144.319z M2913.303,1058.161l290.791-47.12
		l-162.897,490.036l-289.447,47.12L2913.303,1058.161z M3439.69,973.347l290.791-47.12l-162.897,490.036l-289.447,47.12
		L3439.69,973.347z"/>
	
		<rect x="1016.882" y="1211.756" transform="matrix(0.9871 -0.1603 0.1603 0.9871 -185.6705 416.878)" style="fill-rule:evenodd;clip-rule:evenodd;fill:#3A3A3A;" width="2947.388" height="294.584"/>
	<path style="fill-rule:evenodd;clip-rule:evenodd;fill:#C3C4C4;" d="M1305.87,1402.8l289.444-47.12l-105.006,315.026
		l-289.447,47.12L1305.87,1402.8z M1832.257,1316.642l289.444-47.12l-105.005,316.37l-289.447,47.12L1832.257,1316.642z
		 M2358.644,1231.828l289.444-47.12l-105.006,315.026l-289.447,47.117L2358.644,1231.828z M2885.031,1145.666l289.444-47.12
		l-105.009,316.373l-289.444,47.117L2885.031,1145.666z M3411.417,1060.852l289.444-48.467L3597.2,1328.758l-290.791,47.12
		L3411.417,1060.852z"/>
	<path style="fill-rule:evenodd;clip-rule:evenodd;fill:#252626;" d="M1153.742,1853.798h2784.063
		c44.426,0,80.774,36.348,80.774,80.777v294.829c0,44.426-36.348,80.777-80.774,80.777H1153.742
		c-45.773,0-82.121-36.351-82.121-80.777v-294.829C1071.621,1890.146,1107.969,1853.798,1153.742,1853.798L1153.742,1853.798z"/>
	<path style="fill-rule:evenodd;clip-rule:evenodd;fill:#AEAFB0;" d="M1410.879,1853.798h293.485l-238.29,456.382h-293.485
		L1410.879,1853.798z M1943.997,1853.798h293.485l-238.29,456.382h-293.485L1943.997,1853.798z M2477.115,1853.798h293.482
		L2532.31,2310.18h-293.485L2477.115,1853.798z M3011.577,1853.798h293.485l-239.634,456.382h-293.485L3011.577,1853.798z
		 M3544.695,1853.798h293.485l-238.287,456.382h-293.485L3544.695,1853.798z"/>
	<rect x="1071.621" y="1934.575" style="fill-rule:evenodd;clip-rule:evenodd;fill:#3A3A3A;" width="2946.957" height="294.829"/>
	<path style="fill-rule:evenodd;clip-rule:evenodd;fill:#C3C4C4;" d="M1367.797,1934.575h293.485l-153.472,294.829h-293.485
		L1367.797,1934.575z M1902.262,1934.575h293.485l-154.819,294.829h-293.485L1902.262,1934.575z M2435.38,1934.575h293.485
		l-153.472,294.829h-293.485L2435.38,1934.575z M2968.498,1934.575h293.485l-153.472,294.829h-293.485L2968.498,1934.575z
		 M3501.616,1934.575h293.485l-153.475,294.829h-293.482L3501.616,1934.575z"/>
	<path style="fill-rule:evenodd;clip-rule:evenodd;fill:#252626;" d="M1031.233,1509.156h87.508l312.332,397.146v242.324
		c0,25.582-21.541,45.776-49.813,45.776h-350.027c-26.926,0-49.81-20.194-49.81-45.776v-593.698
		C981.422,1529.35,1004.307,1509.156,1031.233,1509.156L1031.233,1509.156z"/>
	<path style="fill-rule:evenodd;clip-rule:evenodd;fill:#313130;" d="M3928.379,2310.18H1163.167v1673.397
		c0,59.236,47.12,106.355,106.356,106.355H3820.68c59.236,0,107.699-47.12,107.699-106.355V2310.18z"/>
	<rect x="1163.167" y="2310.18" style="fill-rule:evenodd;clip-rule:evenodd;fill:#1D1D1E;" width="2765.212" height="106.353"/>
	<path style="fill-rule:evenodd;clip-rule:evenodd;fill:#676766;" d="M1083.737,2044.968c21.541,0,39.042,17.5,39.042,40.385
		c0,21.541-17.5,39.044-39.042,39.044s-39.042-17.503-39.042-39.044C1044.695,2062.468,1062.196,2044.968,1083.737,2044.968
		L1083.737,2044.968z"/>
	<path style="fill-rule:evenodd;clip-rule:evenodd;fill:#676766;" d="M1315.295,2044.968c21.538,0,40.385,17.5,40.385,40.385
		c0,21.541-18.847,39.044-40.385,39.044c-21.541,0-39.042-17.503-39.042-39.044
		C1276.254,2062.468,1293.754,2044.968,1315.295,2044.968L1315.295,2044.968z"/>
	<path style="fill-rule:evenodd;clip-rule:evenodd;fill:#676766;" d="M1083.737,1616.858c21.541,0,39.042,17.5,39.042,39.038
		c0,21.541-17.5,39.042-39.042,39.042s-39.042-17.5-39.042-39.042C1044.695,1634.359,1062.196,1616.858,1083.737,1616.858
		L1083.737,1616.858z"/>
	<path style="fill-rule:evenodd;clip-rule:evenodd;fill:#818181;" d="M1418.957,2754.443h378.296h61.929H3231.02h61.927h378.299
		v61.93h-378.299v421.378h378.299c0,20.194,0,40.388,0,61.927h-378.299v420.034h378.299v61.926H1418.957v-61.926h378.296v-420.034
		h-378.296c0-21.538,0-41.732,0-61.927h378.296v-421.378h-378.296V2754.443z M3231.02,2816.373H1859.182v421.378H3231.02V2816.373z
		 M1859.182,3299.677v420.034H3231.02v-420.034H1859.182z"/>
</g>
</svg>
